<?xml version="1.0"?>
<svg xmlns="http://www.w3.org/2000/svg" viewBox="0 0 64 64" width="512" height="512"><g id="Payment"><path d="M62,13A10.993,10.993,0,0,0,41.214,8H7a5.006,5.006,0,0,0-5,5V37a5.006,5.006,0,0,0,5,5h8.461L12.9,47.771a5.024,5.024,0,0,0,.2,4.459l3.528,6.349A3.011,3.011,0,0,1,17,60.037V61a1,1,0,0,0,2,0v-.963a5.021,5.021,0,0,0-.629-2.429l-3.528-6.349a3.018,3.018,0,0,1-.119-2.676L17.65,42H25v7a1,1,0,0,0,2,0V37a3,3,0,0,1,6,0V61a1,1,0,0,0,2,0V48.46A5.969,5.969,0,0,0,39,50h3a1,1,0,0,0,1-1V42H53a5.006,5.006,0,0,0,5-5V21.479A10.986,10.986,0,0,0,62,13ZM51,4a9,9,0,1,1-9,9A9.011,9.011,0,0,1,51,4ZM4,16H40.426a11,11,0,0,0,2.095,4H4Zm3-6H40.426A10.966,10.966,0,0,0,40,13c0,.338.021.67.051,1H4V13A3,3,0,0,1,7,10ZM41,48H39a4,4,0,0,1-4-4V42h6ZM56,37a3,3,0,0,1-3,3H35V37a5,5,0,0,0-10,0v3H7a3,3,0,0,1-3-3V22H44.7A10.923,10.923,0,0,0,56,22.786Z"/><path d="M48,28a3.966,3.966,0,0,0-2.49.894,4,4,0,1,0,0,6.212A3.992,3.992,0,1,0,48,28Zm-7,4a2,2,0,0,1,2-2,1.968,1.968,0,0,1,1.3.486,3.946,3.946,0,0,0,0,3.028A1.968,1.968,0,0,1,43,34,2,2,0,0,1,41,32Zm7,2a2,2,0,1,1,2-2A2,2,0,0,1,48,34Z"/><path d="M21,31H19a1,1,0,0,0,0,2h2a1,1,0,0,0,0-2Z"/><path d="M15,31H13a1,1,0,0,0,0,2h2a1,1,0,0,0,0-2Z"/><path d="M9,31H7a1,1,0,0,0,0,2H9a1,1,0,0,0,0-2Z"/><path d="M48.293,17.707a1,1,0,0,0,1.414,0l7.071-7.071a1,1,0,1,0-1.414-1.414L49,15.586l-2.293-2.293a1,1,0,0,0-1.414,1.414Z"/></g></svg>
